<?xml version="1.0" encoding="UTF-8"?>
<svg width="48px" height="48px" viewBox="0 0 48 48" version="1.1" xmlns="http://www.w3.org/2000/svg" xmlns:xlink="http://www.w3.org/1999/xlink">
    <!-- Generator: Sketch 55.2 (78181) - https://sketchapp.com -->
    <title>Direct Communication</title>
    <desc>Created with Sketch.</desc>
    <g id="Page-1" stroke="none" stroke-width="1" fill="none" fill-rule="evenodd">
        <g id="Dedicated-Engagement-Model" transform="translate(-380.000000, -6217.000000)" fill="#FF7675" fill-rule="nonzero">
            <g id="Group-47" transform="translate(380.000000, 6217.000000)">
                <g id="Group-15">
                    <g id="Group-34">
                        <g id="ic-hire-model-onsite-team-1">
                            <path d="M37.4560547,16.4688721 C37.4560547,17.2456055 36.8265381,17.8751221 36.0498047,17.8751221 C35.2734375,17.8751221 34.6435547,17.2456055 34.6435547,16.4688721 C34.6435547,15.6921386 35.2734375,15.0626221 36.0498047,15.0626221 C36.8265381,15.0626221 37.4560547,15.6921386 37.4560547,16.4688721 Z M36.0483398,4.51867678 C37.2312011,4.51867678 38.3408203,4.97863772 39.1746826,5.81396484 C40.0085449,6.64672856 40.4685058,7.75634766 40.4685058,8.93737791 C40.4685058,11.3737793 38.4865723,13.3560791 36.0498047,13.3560791 C35.2734375,13.3560791 34.6435547,12.7265625 34.6435547,11.9498291 C34.6435547,11.1734619 35.2734375,10.5435791 36.0498047,10.5435791 C36.935669,10.5435791 37.6560058,9.82324219 37.6560058,8.93737791 C37.6560058,8.50854488 37.4893799,8.10534666 37.1861573,7.80285647 C36.8818359,7.49816897 36.4790039,7.33117678 36.0498047,7.33117678 C35.1635742,7.33117678 34.4436036,8.05114744 34.4436036,8.93591306 C34.4436036,9.71264644 33.8140869,10.3428955 33.0373536,10.3428955 C32.2609864,10.3428955 31.6311036,9.71411138 31.6311036,8.93737791 L31.6311036,8.93591306 C31.6311036,6.50024419 33.6126709,4.51867678 36.0483398,4.51867678 Z M1.40625,22.3937989 C0.629516625,22.3937989 8.8817842e-14,21.7642823 8.8817842e-14,20.9875489 L8.8817842e-14,17.9750977 C8.8817842e-14,13.8479004 2.61767578,11.2166748 4.72558594,10.0872803 C3.66723638,9.01647947 3.01245113,7.54614263 3.01245113,5.92492678 C3.01245113,2.65795894 5.67041016,8.8817842e-15 8.93737791,8.8817842e-15 C12.2047119,8.8817842e-15 14.8623047,2.65795894 14.8623047,5.92492678 C14.8623047,7.54614263 14.2075195,9.01647947 13.1491699,10.0872803 C15.2614746,11.2188721 17.8751221,13.8486328 17.8751221,17.9750977 L17.8751221,20.9875489 C17.8751221,21.7642823 17.2452393,22.3937989 16.4688721,22.3937989 L1.40625,22.3937989 Z M5.82495113,5.92492678 C5.82495113,7.64135738 7.2213135,9.03735356 8.93737791,9.03735356 C10.6538086,9.03735356 12.0498047,7.64135738 12.0498047,5.92492678 C12.0498047,4.20886228 10.6538086,2.8125 8.93737791,2.8125 C7.2213135,2.8125 5.82495113,4.20886228 5.82495113,5.92492678 Z M2.8125,17.9750977 L2.8125,19.5812989 L15.0622558,19.5812989 L15.0622558,17.9750977 C15.0622558,14.5872803 12.3204346,11.8498536 8.93737791,11.8498536 C5.5495605,11.8498536 2.8125,14.5920411 2.8125,17.9750977 Z M43.2744141,35.6934815 C45.3863526,36.8250732 48,39.4548339 48,43.5812989 L48,46.59375 C48,47.3704834 47.3704834,48 46.59375,48 L31.5311279,48 C30.7547607,48 30.1248779,47.3704834 30.1248779,46.59375 L30.1248779,43.5812989 C30.1248779,39.4541016 32.7425537,36.822876 34.8508301,35.6934815 C33.7924805,34.6226807 33.1376953,33.1523438 33.1376953,31.5314942 C33.1376953,28.2641602 35.7956542,25.6062011 39.0626221,25.6062011 C42.3295898,25.6062011 44.9875489,28.2641602 44.9875489,31.5314942 C44.9875489,33.1523438 44.3327636,34.6226807 43.2744141,35.6934815 Z M35.9501953,31.5311279 C35.9501953,33.2475586 37.3461914,34.6435547 39.0626221,34.6435547 C40.7786865,34.6435547 42.1750489,33.2475586 42.1750489,31.5311279 C42.1750489,29.8150635 40.7786865,28.4187011 39.0626221,28.4187011 C37.3461914,28.4187011 35.9501953,29.8150635 35.9501953,31.5311279 Z M45.1875,45.1875 L45.1875,43.5812989 C45.1875,40.1934815 42.4453125,37.4564209 39.0622558,37.4564209 C35.6744385,37.4564209 32.9373779,40.1982422 32.9373779,43.5812989 L32.9373779,45.1875 L45.1875,45.1875 Z M42.0750732,8.8817842e-15 C45.3420411,8.8817842e-15 48,2.65795894 48,5.92492678 L48,16.4688721 C48,19.7358398 45.3420411,22.3937989 42.0750732,22.3937989 L20.9875489,22.3937989 C19.829956,22.3937989 19.1689453,21.0688477 19.8625489,20.1437989 L24.0999756,14.4938964 L24.0999756,5.92492678 C24.0999756,2.64770513 26.7524414,8.8817842e-15 30.0249023,8.8817842e-15 L42.0750732,8.8817842e-15 Z M45.1875,16.4688721 L45.1875,5.92492678 C45.1875,4.20886228 43.7911377,2.8125 42.0750732,2.8125 L30.0249023,2.8125 C28.3037109,2.8125 26.9124756,4.20446775 26.9124756,5.92492678 L26.9124756,14.9626464 C26.9124756,15.2669678 26.8139648,15.5628662 26.6312256,15.8063964 L23.8000489,19.5812989 L42.0750732,19.5812989 C43.7911377,19.5812989 45.1875,18.1849365 45.1875,16.4688721 Z M27.0124511,25.6062011 C27.5452881,25.6062011 28.0319824,25.9072266 28.2703857,26.383667 C28.5084229,26.8601074 28.4571533,27.4302979 28.1374511,27.8562011 L23.9000244,33.5061036 L23.9000244,42.0750732 C23.9000244,45.3522949 21.2475586,48 17.9750977,48 L5.92492678,48 C2.65795894,48 7.81597009e-14,45.3420411 7.81597009e-14,42.0750732 L7.81597009e-14,31.5311279 C7.81597009e-14,28.2641602 2.65795894,25.6062011 5.92492678,25.6062011 L27.0124511,25.6062011 Z M21.3687744,32.1936036 L24.1999511,28.4187011 L5.92492678,28.4187011 C4.20886228,28.4187011 2.8125,29.8150635 2.8125,31.5311279 L2.8125,42.0750732 C2.8125,43.7911377 4.20886228,45.1875 5.92492678,45.1875 L17.9750977,45.1875 C18.8063964,45.1875 19.5878906,44.8637695 20.1767578,44.2756348 C20.763794,43.6882324 21.0875244,42.9063721 21.0875244,42.0750732 L21.0875244,33.0373536 C21.0875244,32.7330323 21.1860352,32.4371338 21.3687744,32.1936036 Z M7.43115234,35.1968994 C6.65441897,35.1968994 6.02490234,34.5673828 6.02490234,33.7906494 C6.02490234,33.0139161 6.65478516,32.3843994 7.43115234,32.3843994 L16.4688721,32.3843994 C17.2452393,32.3843994 17.8751221,33.0139161 17.8751221,33.7906494 C17.8751221,34.5673828 17.2452393,35.1968994 16.4688721,35.1968994 L7.43115234,35.1968994 Z M7.43115234,41.2218018 C6.65441897,41.2218018 6.02490234,40.5922852 6.02490234,39.8155518 C6.02490234,39.0388183 6.65478516,38.4093018 7.43115234,38.4093018 L11.9501953,38.4093018 C12.7265625,38.4093018 13.3564453,39.0388183 13.3564453,39.8155518 C13.3564453,40.5922852 12.7265625,41.2218018 11.9501953,41.2218018 L7.43115234,41.2218018 Z" id="Direct-Communication"></path>
                        </g>
                    </g>
                </g>
            </g>
        </g>
    </g>
</svg>