<?xml version="1.0" encoding="UTF-8"?>
<svg width="48px" height="48px" viewBox="0 0 48 48" version="1.1" xmlns="http://www.w3.org/2000/svg" xmlns:xlink="http://www.w3.org/1999/xlink">
    <!-- Generator: Sketch 55.2 (78181) - https://sketchapp.com -->
    <title>Project control</title>
    <desc>Created with Sketch.</desc>
    <g id="Page-1" stroke="none" stroke-width="1" fill="none" fill-rule="evenodd">
        <g id="Dedicated-Engagement-Model" transform="translate(-380.000000, -6519.000000)" fill="#FCCA75" fill-rule="nonzero">
            <g id="Group-47-Copy" transform="translate(380.000000, 6519.000000)">
                <g id="Group-15">
                    <g id="Group-34">
                        <g id="ic-hire-model-onsite-team-1">
                            <g id="settings">
                                <path d="M12.75,8.4375 C11.9733496,8.4375 11.34375,7.80790043 11.34375,7.03125 C11.34375,6.25459957 11.9733496,5.625 12.75,5.625 C13.5266504,5.625 14.15625,6.25459957 14.15625,7.03125 C14.15625,7.80790043 13.5266504,8.4375 12.75,8.4375 Z M7.125,8.4375 C6.34834957,8.4375 5.71875,7.80790043 5.71875,7.03125 C5.71875,6.25459957 6.34834957,5.625 7.125,5.625 C7.90165043,5.625 8.53125,6.25459957 8.53125,7.03125 C8.53125,7.80790043 7.90165043,8.4375 7.125,8.4375 Z M35.34375,8.4375 C34.5670996,8.4375 33.9375,7.80790043 33.9375,7.03125 C33.9375,6.25459957 34.5670996,5.625 35.34375,5.625 C36.1204004,5.625 36.75,6.25459957 36.75,7.03125 C36.75,7.80790043 36.1204004,8.4375 35.34375,8.4375 Z M40.96875,8.4375 C40.1920996,8.4375 39.5625,7.80790043 39.5625,7.03125 C39.5625,6.25459957 40.1920996,5.625 40.96875,5.625 C41.7454004,5.625 42.375,6.25459957 42.375,7.03125 C42.375,7.80790043 41.7454004,8.4375 40.96875,8.4375 Z M43.78125,0 C46.1074687,0 48,1.89253125 48,4.21875 L48,43.78125 C48,46.1074687 46.1074687,48 43.78125,48 L4.21875,48 C1.89253125,48 0,46.1074687 0,43.78125 L0,4.21875 C0,1.89253125 1.89253125,0 4.21875,0 L43.78125,0 Z M45.1875,43.78125 L45.1875,14.0625 L2.8125,14.0625 L2.8125,43.78125 C2.8125,44.5566563 3.44334375,45.1875 4.21875,45.1875 L43.78125,45.1875 C44.5566563,45.1875 45.1875,44.5566563 45.1875,43.78125 Z M45.1875,11.25 L45.1875,4.21875 C45.1875,3.44334375 44.5566563,2.8125 43.78125,2.8125 L4.21875,2.8125 C3.44334375,2.8125 2.8125,3.44334375 2.8125,4.21875 L2.8125,11.25 L45.1875,11.25 Z M26.8125,31.03125 C27.589125,31.03125 28.21875,31.660875 28.21875,32.4375 L28.21875,38.0625 C28.21875,38.839125 27.589125,39.46875 26.8125,39.46875 L25.40625,39.46875 L25.40625,40.96875 C25.40625,41.745375 24.776625,42.375 24,42.375 C23.223375,42.375 22.59375,41.745375 22.59375,40.96875 L22.59375,39.46875 L21.1875,39.46875 C20.410875,39.46875 19.78125,38.839125 19.78125,38.0625 L19.78125,32.4375 C19.78125,31.660875 20.410875,31.03125 21.1875,31.03125 L22.59375,31.03125 L22.59375,18.375 C22.59375,17.598375 23.223375,16.96875 24,16.96875 C24.776625,16.96875 25.40625,17.598375 25.40625,18.375 L25.40625,31.03125 L26.8125,31.03125 Z M25.40625,36.65625 L25.40625,33.84375 L22.59375,33.84375 L22.59375,36.65625 L25.40625,36.65625 Z M12.75,19.78125 C13.526625,19.78125 14.15625,20.410875 14.15625,21.1875 L14.15625,26.8125 C14.15625,27.589125 13.526625,28.21875 12.75,28.21875 L11.34375,28.21875 L11.34375,40.96875 C11.34375,41.745375 10.714125,42.375 9.9375,42.375 C9.160875,42.375 8.53125,41.745375 8.53125,40.96875 L8.53125,28.21875 L7.125,28.21875 C6.348375,28.21875 5.71875,27.589125 5.71875,26.8125 L5.71875,21.1875 C5.71875,20.410875 6.348375,19.78125 7.125,19.78125 L8.53125,19.78125 L8.53125,18.375 C8.53125,17.598375 9.160875,16.96875 9.9375,16.96875 C10.714125,16.96875 11.34375,17.598375 11.34375,18.375 L11.34375,19.78125 L12.75,19.78125 Z M11.34375,25.40625 L11.34375,22.59375 L8.53125,22.59375 L8.53125,25.40625 L11.34375,25.40625 Z M40.96875,19.78125 C41.745375,19.78125 42.375,20.410875 42.375,21.1875 L42.375,26.8125 C42.375,27.589125 41.745375,28.21875 40.96875,28.21875 L39.5625,28.21875 L39.5625,40.96875 C39.5625,41.745375 38.932875,42.375 38.15625,42.375 C37.379625,42.375 36.75,41.745375 36.75,40.96875 L36.75,28.21875 L35.34375,28.21875 C34.567125,28.21875 33.9375,27.589125 33.9375,26.8125 L33.9375,21.1875 C33.9375,20.410875 34.567125,19.78125 35.34375,19.78125 L36.75,19.78125 L36.75,18.375 C36.75,17.598375 37.379625,16.96875 38.15625,16.96875 C38.932875,16.96875 39.5625,17.598375 39.5625,18.375 L39.5625,19.78125 L40.96875,19.78125 Z M39.5625,25.40625 L39.5625,22.59375 L36.75,22.59375 L36.75,25.40625 L39.5625,25.40625 Z M29.625,5.625 C30.401625,5.625 31.03125,6.254625 31.03125,7.03125 C31.03125,7.807875 30.401625,8.4375 29.625,8.4375 L18.375,8.4375 C17.598375,8.4375 16.96875,7.807875 16.96875,7.03125 C16.96875,6.254625 17.598375,5.625 18.375,5.625 L29.625,5.625 Z" id="Project-control"></path>
                            </g>
                        </g>
                    </g>
                </g>
            </g>
        </g>
    </g>
</svg>