<?xml version="1.0" encoding="UTF-8"?>
<svg width="48px" height="48px" viewBox="0 0 48 48" version="1.1" xmlns="http://www.w3.org/2000/svg" xmlns:xlink="http://www.w3.org/1999/xlink">
    <!-- Generator: Sketch 55.2 (78181) - https://sketchapp.com -->
    <title>Plug n play</title>
    <desc>Created with Sketch.</desc>
    <g id="Page-1" stroke="none" stroke-width="1" fill="none" fill-rule="evenodd">
        <g id="Dedicated-Engagement-Model" transform="translate(-770.000000, -6519.000000)" fill="#A29EFB" fill-rule="nonzero">
            <g id="Group-47-Copy" transform="translate(380.000000, 6519.000000)">
                <g id="Group-15">
                    <g id="Group-32" transform="translate(390.000000, 0.000000)">
                        <g id="ic-hire-model-offsite-team">
                            <g id="plug">
                                <path d="M29.5337812,36.9203437 C30.2367187,37.6232812 30.2367187,38.7630937 29.5337812,39.4659375 C28.83075,40.168875 27.691125,40.168875 26.9881875,39.4659375 L26.0079375,38.4856875 L20.7794062,43.714125 C20.5671562,43.9262812 20.305125,44.0820937 20.0174062,44.1672187 L11.744625,46.6156875 C11.1092812,46.8032812 10.42575,46.6273125 9.96103125,46.1624062 L7.17215625,43.3735312 L3.07284375,47.4728437 C2.3698125,48.1757812 1.2301875,48.1757812 0.52725,47.4728437 C-0.1756875,46.7698125 -0.1756875,45.6300937 0.52725,44.92725 L4.626375,40.8279375 L1.83759375,38.0391562 C1.371,37.5726562 1.197,36.8881875 1.3843125,36.2555625 L3.8326875,27.9825937 C3.91790625,27.6946875 4.07371875,27.4328437 4.28596875,27.2205937 L9.51440625,21.9921562 L8.53415625,21.0119062 C7.83121875,20.308875 7.83121875,19.1691562 8.53415625,18.4663125 C9.2371875,17.7634687 10.3769062,17.7634687 11.07975,18.4663125 C15.0732187,22.4597812 11.54325,18.92925 15.537,22.9230937 L19.4965312,18.9634687 C20.1995625,18.260625 21.3392812,18.260625 22.042125,18.9634687 C22.7450625,19.6665 22.7450625,20.8062187 22.042125,21.5090625 L18.0825937,25.4686875 L22.53075,29.9168437 L26.4902812,25.9572187 C27.1933125,25.254375 28.3330312,25.254375 29.035875,25.9572187 C29.7388125,26.66025 29.7388125,27.7999687 29.035875,28.5028125 L25.0763437,32.4624375 C29.0783437,36.4644375 25.5314062,32.9179687 29.5337812,36.9203437 Z M18.55725,40.8450937 L23.46225,35.94 C22.3486875,34.8264375 13.228875,25.706625 12.06,24.53775 L7.155,29.44275 L5.14021875,36.2505937 L11.7495,42.859875 L18.55725,40.8450937 Z M47.47275,0.52725 C48.175875,1.2301875 48.175875,2.36990625 47.47275,3.07265625 L43.3734375,7.17196875 L46.1623125,9.96084375 C46.6288125,10.4273437 46.8028125,11.1118125 46.6155937,11.7444375 L44.1672187,20.0173125 C44.082,20.3052187 43.9261875,20.5670625 43.7139375,20.7793125 L38.4855,26.00775 L39.46575,26.988 C40.1686875,27.6910312 40.1686875,28.83075 39.46575,29.5335937 C38.7627187,30.2365312 37.6230937,30.2365312 36.9201562,29.5335937 C36.2670937,28.8805312 19.9609687,12.5744062 18.4662187,11.0796562 C17.7632812,10.376625 17.7632812,9.23690625 18.4662187,8.5340625 C19.16925,7.83121875 20.3089687,7.83121875 21.0118125,8.5340625 L21.9920625,9.51440625 L27.2205,4.28596875 C27.43275,4.0738125 27.6947812,3.91790625 27.9825,3.8326875 L36.2554687,1.38440625 C36.888375,1.1975625 37.5726562,1.371 38.0390625,1.8376875 L40.8279375,4.6265625 L44.9271562,0.52725 C45.6301875,-0.17559375 46.7699062,-0.17559375 47.47275,0.52725 Z M40.8450937,18.5573437 L42.8597812,11.7494062 L36.2505,5.140125 L29.4426562,7.15490625 L24.5376562,12.0599062 L35.9400937,23.4623437 L40.8450937,18.5573437 Z M16.8995625,36.14775 C17.6025,36.8506875 17.6025,37.9905 16.8995625,38.6933437 C16.1965312,39.3962812 15.0569062,39.3962812 14.3539687,38.6933437 L9.30675,33.646125 C8.6038125,32.9430937 8.6038125,31.803375 9.30675,31.1005312 C10.0097812,30.3976875 11.1495,30.3976875 11.8523437,31.1005312 L16.8995625,36.14775 Z M38.6933437,14.3539687 C39.3962812,15.0569062 39.3962812,16.1967187 38.6933437,16.8995625 C37.9903125,17.6025 36.8506875,17.6025 36.14775,16.8995625 L31.1005312,11.8523437 C30.3975937,11.1493125 30.3975937,10.0095937 31.1005312,9.30675 C31.803375,8.60390625 32.9431875,8.60390625 33.646125,9.30675 L38.6933437,14.3539687 Z" id="Plug-n-play"></path>
                            </g>
                        </g>
                    </g>
                </g>
            </g>
        </g>
    </g>
</svg>