<?xml version="1.0" encoding="UTF-8"?>
<svg width="45px" height="48px" viewBox="0 0 45 48" version="1.1" xmlns="http://www.w3.org/2000/svg" xmlns:xlink="http://www.w3.org/1999/xlink">
    <!-- Generator: Sketch 55.2 (78181) - https://sketchapp.com -->
    <title>Transparent ecosystem</title>
    <desc>Created with Sketch.</desc>
    <g id="Page-1" stroke="none" stroke-width="1" fill="none" fill-rule="evenodd">
        <g id="Dedicated-Engagement-Model" transform="translate(-1160.000000, -6519.000000)" fill="#E64793" fill-rule="nonzero">
            <g id="Group-47-Copy" transform="translate(380.000000, 6519.000000)">
                <g id="Group-15">
                    <g id="Group-32-Copy" transform="translate(780.000000, 0.000000)">
                        <g id="ic-hire-model-product-developement-team">
                            <path d="M40.7900208,0 C43.1114033,0 45,1.89253125 45,4.21875 L45,38.15625 C45,38.5155937 44.8566736,38.8816875 44.5900416,39.1494375 C44.5895738,39.1499063 44.5891996,39.150375 44.5887318,39.1508437 L36.1692412,47.587875 C35.9018607,47.8558125 35.536341,48 35.1764345,48 C35.1761538,48 35.1757796,48 35.175499,48 L4.20997921,48 C1.88859667,48 0,46.1074687 0,43.78125 L0,4.21875 C0,1.89253125 1.88859667,0 4.20997921,0 L40.7900208,0 Z M36.5800416,43.1987812 L40.208763,39.5625 L36.5800416,39.5625 L36.5800416,43.1987812 Z M42.1933472,36.75 L42.1933472,4.21875 C42.1933472,3.44334375 41.563815,2.8125 40.7900208,2.8125 L4.20997921,2.8125 C3.43618503,2.8125 2.80665281,3.44334375 2.80665281,4.21875 L2.80665281,43.78125 C2.80665281,44.5566563 3.43618503,45.1875 4.20997921,45.1875 L33.7733888,45.1875 L33.7733888,38.15625 C33.7733888,37.379625 34.4017048,36.75 35.1767152,36.75 L42.1933472,36.75 Z M33.3622141,23.0055938 L36.1685863,25.8179063 C36.7152287,26.3653125 36.7153222,27.2595938 36.1685863,27.8070938 L33.3622141,30.6194063 C33.0882848,30.8940938 32.7290333,31.0313438 32.3699688,31.0313438 C32.0109044,31.0313438 31.6517464,30.894 31.3777235,30.6194063 C30.8296778,30.0702188 30.8296778,29.179875 31.3777235,28.6306875 L31.7888046,28.21875 L22.3054054,28.21875 C21.7261123,29.8554375 20.1662682,31.0313438 18.3367983,31.0313438 C16.5073285,31.0313438 14.9474844,29.8554375 14.3681913,28.21875 L14.1268191,28.21875 C11.0316424,28.21875 8.51351351,25.695375 8.51351351,22.59375 C8.51351351,19.492125 11.0316424,16.96875 14.1268191,16.96875 L22.7881497,16.96875 C23.3674428,15.3320625 24.9272869,14.15625 26.7567568,14.15625 C28.5862266,14.15625 30.1460707,15.3320625 30.7253638,16.96875 L30.966736,16.96875 C32.5143243,16.96875 33.7733888,15.7070625 33.7733888,14.15625 C33.7733888,12.6054375 32.5143243,11.34375 30.966736,11.34375 L16.6920998,11.34375 C16.1128067,12.9804375 14.5529626,14.15625 12.7234927,14.15625 C10.4021102,14.15625 8.51351351,12.2637188 8.51351351,9.9375 C8.51351351,7.61128125 10.4021102,5.71875 12.7234927,5.71875 C14.5529626,5.71875 16.1128067,6.8945625 16.6920998,8.53125 L30.966736,8.53125 C34.0619127,8.53125 36.5800416,11.054625 36.5800416,14.15625 C36.5800416,17.257875 34.0619127,19.78125 30.966736,19.78125 L30.7253638,19.78125 C30.1460707,21.4179375 28.5862266,22.59375 26.7567568,22.59375 C24.9272869,22.59375 23.3674428,21.4179375 22.7881497,19.78125 L14.1268191,19.78125 C12.5792308,19.78125 11.3201663,21.0429375 11.3201663,22.59375 C11.3201663,24.1445625 12.5792308,25.40625 14.1268191,25.40625 L14.3681913,25.40625 C14.9474844,23.7695625 16.5073285,22.59375 18.3367983,22.59375 C20.1662682,22.59375 21.7261123,23.7695625 22.3054054,25.40625 L31.788711,25.40625 L31.3776299,24.9943125 C30.8295842,24.445125 30.8295842,23.5547813 31.3776299,23.0055938 C31.9256757,22.4564063 32.814262,22.4564063 33.3622141,23.0055938 Z M12.7234927,11.34375 C13.4972869,11.34375 14.1268191,10.7129063 14.1268191,9.9375 C14.1268191,9.16209375 13.4972869,8.53125 12.7234927,8.53125 C11.9496985,8.53125 11.3201663,9.16209375 11.3201663,9.9375 C11.3201663,10.7129063 11.9496985,11.34375 12.7234927,11.34375 Z M26.7567568,16.96875 C25.9829626,16.96875 25.3534304,17.5995938 25.3534304,18.375 C25.3534304,19.1504063 25.9829626,19.78125 26.7567568,19.78125 C27.5306445,19.78125 28.1600832,19.1504063 28.1600832,18.375 C28.1600832,17.5995938 27.5305509,16.96875 26.7567568,16.96875 Z M18.3367983,28.21875 C19.1105925,28.21875 19.7401247,27.5879063 19.7401247,26.8125 C19.7401247,26.0370938 19.1105925,25.40625 18.3367983,25.40625 C17.5630042,25.40625 16.9334719,26.0370938 16.9334719,26.8125 C16.9334719,27.5879063 17.5630042,28.21875 18.3367983,28.21875 Z M15.5301455,33.9375 C16.3051559,33.9375 16.9334719,34.567125 16.9334719,35.34375 C16.9334719,36.120375 16.3051559,36.75 15.5301455,36.75 L9.91683992,36.75 C9.14182952,36.75 8.51351351,36.120375 8.51351351,35.34375 C8.51351351,34.567125 9.14182952,33.9375 9.91683992,33.9375 L15.5301455,33.9375 Z M21.1434511,39.5625 C21.9184615,39.5625 22.5467775,40.192125 22.5467775,40.96875 C22.5467775,41.745375 21.9184615,42.375 21.1434511,42.375 L9.91683992,42.375 C9.14182952,42.375 8.51351351,41.745375 8.51351351,40.96875 C8.51351351,40.192125 9.14182952,39.5625 9.91683992,39.5625 L21.1434511,39.5625 Z" id="Transparent-ecosystem"></path>
                        </g>
                    </g>
                </g>
            </g>
        </g>
    </g>
</svg>