<?xml version="1.0" encoding="UTF-8"?>
<svg width="48px" height="48px" viewBox="0 0 48 48" version="1.1" xmlns="http://www.w3.org/2000/svg" xmlns:xlink="http://www.w3.org/1999/xlink">
    <!-- Generator: Sketch 55.2 (78181) - https://sketchapp.com -->
    <title>Your team, your selection</title>
    <desc>Created with Sketch.</desc>
    <g id="Page-1" stroke="none" stroke-width="1" fill="none" fill-rule="evenodd">
        <g id="Dedicated-Engagement-Model" transform="translate(-770.000000, -6217.000000)" fill="#00B894" fill-rule="nonzero">
            <g id="Group-47" transform="translate(380.000000, 6217.000000)">
                <g id="Group-15">
                    <g id="Group-32" transform="translate(390.000000, 0.000000)">
                        <g id="ic-hire-model-offsite-team">
                            <g id="group">
                                <path d="M46.50525,15.0634687 C47.4186562,15.8379375 48,16.9926562 48,18.28125 L48,29.71875 C48,31.0073438 47.4186562,32.1620625 46.50525,32.9365313 C47.43225,33.93975 48,35.279625 48,36.75 C48,39.851625 45.476625,42.375 42.375,42.375 C42.375,45.476625 39.851625,48 36.75,48 C33.648375,48 31.125,45.476625 31.125,42.375 C28.023375,42.375 25.5,39.851625 25.5,36.75 C25.5,35.7257812 25.7764687,34.7562188 26.25675,33.928125 L21.74325,33.928125 C22.2235313,34.7562188 22.5,35.7257812 22.5,36.75 C22.5,39.851625 19.976625,42.375 16.875,42.375 C16.875,45.476625 14.351625,48 11.25,48 C8.148375,48 5.625,45.476625 5.625,42.375 C2.523375,42.375 0,39.851625 0,36.75 C0,35.279625 0.56775,33.93975 1.49475,32.9365313 C0.58134375,32.1620625 0,31.0073438 0,29.71875 L0,18.28125 C0,16.9926562 0.58134375,15.8379375 1.49475,15.0634687 C0.56775,14.06025 0,12.720375 0,11.25 C0,8.148375 2.523375,5.625 5.625,5.625 C5.625,2.523375 8.148375,0 11.25,0 C14.351625,0 16.875,2.523375 16.875,5.625 C19.976625,5.625 22.5,8.148375 22.5,11.25 C22.5,12.2742188 22.2235313,13.2344062 21.74325,14.0625 L26.25675,14.0625 C25.7764687,13.2344062 25.5,12.2742188 25.5,11.25 C25.5,8.148375 28.023375,5.625 31.125,5.625 C31.125,2.523375 33.648375,0 36.75,0 C39.851625,0 42.375,2.523375 42.375,5.625 C45.476625,5.625 48,8.148375 48,11.25 C48,12.720375 47.43225,14.06025 46.50525,15.0634687 Z M36.75,2.8125 C35.1991875,2.8125 33.9375,4.0741875 33.9375,5.625 C33.9375,7.1758125 35.1991875,8.4375 36.75,8.4375 C38.3008125,8.4375 39.5625,7.1758125 39.5625,5.625 C39.5625,4.0741875 38.3008125,2.8125 36.75,2.8125 Z M11.25,2.8125 C9.6991875,2.8125 8.4375,4.0741875 8.4375,5.625 C8.4375,7.1758125 9.6991875,8.4375 11.25,8.4375 C12.8008125,8.4375 14.0625,7.1758125 14.0625,5.625 C14.0625,4.0741875 12.8008125,2.8125 11.25,2.8125 Z M5.625,8.4375 C4.0741875,8.4375 2.8125,9.6991875 2.8125,11.25 C2.8125,12.8008125 4.0741875,14.0625 5.625,14.0625 L16.875,14.0625 C18.4258125,14.0625 19.6875,12.8008125 19.6875,11.25 C19.6875,9.6991875 18.4258125,8.4375 16.875,8.4375 L16.11825,8.4375 C15.1440938,10.117125 13.3274062,11.25 11.25,11.25 C9.17259375,11.25 7.35590625,10.117125 6.38175,8.4375 L5.625,8.4375 Z M11.25,45.1875 C12.8008125,45.1875 14.0625,43.9258125 14.0625,42.375 C14.0625,40.8241875 12.8008125,39.5625 11.25,39.5625 C9.6991875,39.5625 8.4375,40.8241875 8.4375,42.375 C8.4375,43.9258125 9.6991875,45.1875 11.25,45.1875 Z M16.875,39.5625 C18.4258125,39.5625 19.6875,38.3008125 19.6875,36.75 C19.6875,35.1991875 18.4258125,33.9375 16.875,33.9375 L5.625,33.9375 C4.0741875,33.9375 2.8125,35.1991875 2.8125,36.75 C2.8125,38.3008125 4.0741875,39.5625 5.625,39.5625 L6.38175,39.5625 C7.35590625,37.882875 9.17259375,36.75 11.25,36.75 C13.3274062,36.75 15.1440938,37.882875 16.11825,39.5625 L16.875,39.5625 Z M36.75,45.1875 C38.3008125,45.1875 39.5625,43.9258125 39.5625,42.375 C39.5625,40.8241875 38.3008125,39.5625 36.75,39.5625 C35.1991875,39.5625 33.9375,40.8241875 33.9375,42.375 C33.9375,43.9258125 35.1991875,45.1875 36.75,45.1875 Z M42.375,39.5625 C43.9258125,39.5625 45.1875,38.3008125 45.1875,36.75 C45.1875,35.1991875 43.9258125,33.9375 42.375,33.9375 L31.125,33.9375 C29.5741875,33.9375 28.3125,35.1741562 28.3125,36.75 C28.3125,38.3008125 29.5741875,39.5625 31.125,39.5625 L31.88175,39.5625 C32.8559063,37.882875 34.6725938,36.75 36.75,36.75 C38.8274062,36.75 40.6440937,37.882875 41.61825,39.5625 L42.375,39.5625 Z M45.1875,29.71875 L45.1875,18.28125 C45.1875,17.5058438 44.5566563,16.875 43.78125,16.875 C42.366,16.875 4.43859375,16.875 4.21875,16.875 C3.44334375,16.875 2.8125,17.5058437 2.8125,18.28125 L2.8125,29.71875 C2.8125,30.4941563 3.44334375,31.125 4.21875,31.125 C5.634,31.125 43.5614062,31.125 43.78125,31.125 C44.5566563,31.125 45.1875,30.4941563 45.1875,29.71875 Z M42.375,14.0625 C43.9258125,14.0625 45.1875,12.8008125 45.1875,11.25 C45.1875,9.6991875 43.9258125,8.4375 42.375,8.4375 L41.61825,8.4375 C40.6440937,10.117125 38.8274062,11.25 36.75,11.25 C34.6725938,11.25 32.8559063,10.117125 31.88175,8.4375 L31.125,8.4375 C29.5741875,8.4375 28.3125,9.6991875 28.3125,11.25 C28.3125,12.8008125 29.5741875,14.0625 31.125,14.0625 L42.375,14.0625 Z M12.65625,19.6875 C13.432875,19.6875 14.0625,20.317125 14.0625,21.09375 L14.0625,26.90625 C14.0625,27.682875 13.432875,28.3125 12.65625,28.3125 L7.03125,28.3125 C6.254625,28.3125 5.625,27.682875 5.625,26.90625 L5.625,21.09375 C5.625,20.317125 6.254625,19.6875 7.03125,19.6875 L12.65625,19.6875 Z M11.25,25.5 L11.25,22.5 L8.4375,22.5 L8.4375,25.5 L11.25,25.5 Z M35.34375,19.6875 C36.120375,19.6875 36.75,20.317125 36.75,21.09375 L36.75,26.90625 C36.75,27.682875 36.120375,28.3125 35.34375,28.3125 L29.71875,28.3125 C28.942125,28.3125 28.3125,27.682875 28.3125,26.90625 L28.3125,21.09375 C28.3125,20.317125 28.942125,19.6875 29.71875,19.6875 L35.34375,19.6875 Z M33.9375,25.5 L33.9375,22.5 L31.125,22.5 L31.125,25.5 L33.9375,25.5 Z M18.28125,19.6875 C19.057875,19.6875 19.6875,20.317125 19.6875,21.09375 L19.6875,26.90625 C19.6875,27.682875 19.057875,28.3125 18.28125,28.3125 C17.504625,28.3125 16.875,27.682875 16.875,26.90625 L16.875,21.09375 C16.875,20.317125 17.504625,19.6875 18.28125,19.6875 Z M40.96875,19.6875 C41.745375,19.6875 42.375,20.317125 42.375,21.09375 L42.375,26.90625 C42.375,27.682875 41.745375,28.3125 40.96875,28.3125 C40.192125,28.3125 39.5625,27.682875 39.5625,26.90625 L39.5625,21.09375 C39.5625,20.317125 40.192125,19.6875 40.96875,19.6875 Z" id="Your-team,-your-selection"></path>
                            </g>
                        </g>
                    </g>
                </g>
            </g>
        </g>
    </g>
</svg>