<?xml version="1.0" encoding="UTF-8"?>
<svg width="37px" height="48px" viewBox="0 0 37 48" version="1.1" xmlns="http://www.w3.org/2000/svg" xmlns:xlink="http://www.w3.org/1999/xlink">
    <!-- Generator: Sketch 55.2 (78181) - https://sketchapp.com -->
    <title>Zero investment</title>
    <desc>Created with Sketch.</desc>
    <g id="Page-1" stroke="none" stroke-width="1" fill="none" fill-rule="evenodd">
        <g id="Dedicated-Engagement-Model" transform="translate(-1160.000000, -6217.000000)" fill="#0984E3" fill-rule="nonzero">
            <g id="Group-47" transform="translate(380.000000, 6217.000000)">
                <g id="Group-15">
                    <g id="Group-32-Copy" transform="translate(780.000000, 0.000000)">
                        <g id="ic-hire-model-product-developement-team">
                            <g id="growth">
                                <path d="M18.28125,14.15625 C20.6130937,14.15625 22.5,16.04325 22.5,18.375 C22.5,20.2217812 21.3171562,21.7798125 19.6875,22.3544063 L19.6875,24 C19.6875,24.776625 19.057875,25.40625 18.28125,25.40625 C17.504625,25.40625 16.875,24.776625 16.875,24 L16.875,22.3543125 C16.2885938,22.1475937 15.7509375,21.8108438 15.2982188,21.358125 C14.7490313,20.8089375 14.7489375,19.9185937 15.298125,19.3694063 C15.8473125,18.8202188 16.73775,18.8202188 17.2868437,19.3693125 C17.5525313,19.6349063 17.9055938,19.78125 18.28125,19.78125 C19.058625,19.78125 19.6875,19.1522813 19.6875,18.375 C19.6875,17.597625 19.0585313,16.96875 18.28125,16.96875 C15.9494063,16.96875 14.0625,15.08175 14.0625,12.75 C14.0625,10.9032188 15.2453437,9.3451875 16.875,8.77059375 L16.875,7.125 C16.875,6.348375 17.504625,5.71875 18.28125,5.71875 C19.057875,5.71875 19.6875,6.348375 19.6875,7.125 L19.6875,8.7706875 C20.2739062,8.97740625 20.8115625,9.31415625 21.2642813,9.766875 C21.8134688,10.3160625 21.8135625,11.2064063 21.264375,11.7555937 C20.7151875,12.3047813 19.82475,12.3047813 19.2756562,11.7556875 C19.0099688,11.4900937 18.6569062,11.34375 18.28125,11.34375 C17.503875,11.34375 16.875,11.9727188 16.875,12.75 C16.875,13.527375 17.5039687,14.15625 18.28125,14.15625 Z M35.15625,31.03125 C35.932875,31.03125 36.5625,31.660875 36.5625,32.4375 C36.5625,41.0187188 29.6232187,48 21.09375,48 C20.4975938,48 16.0649062,48 15.46875,48 C6.93928125,48 0,41.0187188 0,32.4375 C0,31.660875 0.629625,31.03125 1.40625,31.03125 L4.21875,31.03125 C9.44484375,31.03125 14.0732813,33.6525 16.875,37.656375 L16.875,30.9666563 C9.00215625,30.2537812 2.8125,23.6179688 2.8125,15.5625 C2.8125,6.98128125 9.75178125,0 18.28125,0 C26.8107188,0 33.75,6.98128125 33.75,15.5625 C33.75,23.6179688 27.5603437,30.2537813 19.6875,30.9666563 L19.6875,37.656375 C22.4892187,33.6525 27.1176562,31.03125 32.34375,31.03125 L35.15625,31.03125 Z M15.46875,45.1875 L16.7985938,45.1875 C16.10175,38.8160625 10.7259375,33.84375 4.21875,33.84375 L2.88890625,33.84375 C3.58575,40.2151875 8.9615625,45.1875 15.46875,45.1875 Z M5.625,15.5625 C5.625,22.5411562 11.3025937,28.21875 18.28125,28.21875 C25.2599063,28.21875 30.9375,22.5411562 30.9375,15.5625 C30.9375,8.53209375 25.2599062,2.8125 18.28125,2.8125 C11.3025937,2.8125 5.625,8.53209375 5.625,15.5625 Z M21.09375,45.1875 C27.6009375,45.1875 32.97675,40.2058125 33.6735937,33.834375 L32.34375,33.834375 C25.8365625,33.834375 20.46075,38.8160625 19.7639062,45.1875 L21.09375,45.1875 Z" id="Zero-investment"></path>
                            </g>
                        </g>
                    </g>
                </g>
            </g>
        </g>
    </g>
</svg>